<?xml version="1.0" encoding="utf-8"?>
<!-- Generator: Adobe Illustrator 19.0.0, SVG Export Plug-In . SVG Version: 6.00 Build 0)  -->
<svg version="1.1" id="Layer_1" xmlns="http://www.w3.org/2000/svg" xmlns:xlink="http://www.w3.org/1999/xlink" x="0px" y="0px"
	 viewBox="-439 141.4 80.7 279.6" style="enable-background:new -439 141.4 80.7 279.6;" xml:space="preserve">
<style type="text/css">
	.st0{fill:#FFFFFF;}
</style>
<g id="Layer_2">
	<path id="XMLID_126_" class="st0" d="M-379.7,253c0.1-1.9,0.7-3.9,1.1-5.7c0.4-1.8,0.9-3.5,1.3-5.3c0.3-1.1,0.9-1.9,1.9-2.5
		c1.3-0.8,3.3-0.8,4.7-1.6c1.2-0.6,2.2-1.5,2.8-2.7c1.2-2.5,0.5-5.6,0.1-8.2c-0.2-1.5-0.6-3-0.6-4.5c0-1.7-1.2-4-1.6-5.8
		c-0.4-2.1-0.8-4.2-1.1-6.4c-0.6-4.2-1-8.4-1.2-12.7c-0.1-1.5,0.1-3.2-0.7-4.6c-1.6-2.9-5.7-4-8.6-5c-1.8-0.6-3.5-1.3-5.2-2.1
		c-1.2-0.6-4.1-2-4.5-3.4c-0.8-2.4-0.3-5.6-3.7-4.2c-0.1,0,0.1-1.4,0.1-1.5c0.2-0.6,0.5-1.1,0.8-1.6c0.7-1,1.5-2,2.2-3
		c0.6-0.9,0.2-2.1,0.5-3.1l0.6-2.5c3.4-2.8,3.1-7.4,2.6-7.9c-0.2-0.3-0.6-0.5-0.7-0.6c-0.2-0.2-0.2-1.2-0.1-1.8
		c1-1.7,0.6-4.9,0.4-5.9c-0.2-0.8-0.6-1.6-1-2.5c-0.9-2.1-1.7-4.3-4.3-5.1c-3.4-1-12.1-0.7-16.1,4.1c-3.4,3.5-1.9,12.8-2.6,12.9
		c-0.1-0.1-0.7,0.2-0.8,0.9c-0.1,1.7-0.1,5.7,2.4,7.5c0.4,0.3,0.1,2.2,0.1,2.9c-0.1,1.5,1.3,3.8,1.2,4.6c0,1.1-0.4,1.8,0.6,2.4
		c0.7,0.5,4.7,1.9,4.4,3.6c-0.2,1,0.4,2.6,0.7,3.6s0.6,2.2,1.3,3c1.1,1.4,4.1-2.2,4.8-2.9c2.7-1.5,4,2.8,6.3,3.7
		c2.5,10.4,1.4,29.7,0.7,34c-0.8,4.1-1.1,1.1-1.1,1.1c-0.4-9.2-15.8-43.6-18.7-44.1c-2.3-1.1-3.4,2.3-5.6,2.3
		c-0.6-1-0.2-2.1,0.5-2.9c1.5-1,1.1-1.6,0.4-2.2c-0.6-0.5-1-1.6-0.6-2.6c0.2-1.1-0.1-2.5-1-3.4c-0.6-0.6-3-1.2-2.4-2.3
		c0.3-0.4,1.5-0.3,1.9-0.5c1.1-0.7,0.6-1.6-0.5-1.7c-1-0.1-1.4-0.9-1.6-1.9c-0.1-0.9,0.2-1.9,0.2-2.8c0-0.4,0-0.9-0.1-1.3
		c-0.2-0.4-0.6-0.7-0.8-1c0,0-0.1-0.2,0-1.1c0-0.3,0.4,0.1,0.5-0.3c-0.1,0,1-16.4,1-16.5c-0.2-0.5-2.7-0.6-2.9-0.4l-0.9,16.6
		c0,0.3,0.5,0,0.5,0.3s-0.1,1.1-0.1,1.4c-2.4,1.7-0.8,6.6-4.2,7.6c-2.3,0.7-0.4,3.9-1.2,5.2c-0.5,0.9-1.5,1.3-1.9,2.3
		s-0.4,2.1-0.4,3.1c0.1,2.1,1.2,3.2,1.2,6.2c0,2.4,2.2,4.1,4.4,4.5c2.9,1.1,5-1.3,6.8-0.1c0,1.9-0.2,3.6-1,5.1
		c-1.7,3.2-6.3,4.1-9.1,1.3c-3.9-1.5-1.8-3.7-2.2-5.6c0,0.1-4.5,1.6-4.9,1.9c-1.3,0.8-1,2-1,3.3c0,9.7-1.3,19.4-2.4,29
		c-0.2,1.6-0.4,3.2-0.6,4.9c-0.1,1.2-0.6,2.7-0.1,3.9c1.4,3.9,5.3,7.2,8.7,9.3c2.3,1.4,4.5-1.2,6.6-0.4c2,0.8,1.7,4.5,1.8,6.2
		c0.2,2.9-0.1,5.9-0.6,8.7c-1,5.7-2.8,11.2-3.7,16.9c-0.3,1.6-0.4,3.3-0.5,5c0,0.8-0.4,4.9,0.2,5.4c0.4,0.8,1.5,0.8,1.4,3
		c-1,12.7-1.6,25.4-2.1,38.1s-1.1,25.4-2.1,38c-0.6,6.6-1.8,13.2-2,19.8c-0.2,5.6-2.3,11.5-0.8,17c0.7,2.4-0.4,5.5,1.1,7.5
		c-0.1,2.3-1.6,3.3-1.9,4.2c-0.9,3.4,1.6,6.6,3.3,7.8c3.5,2.8,5.3,2.1,7.5,1.6c3.1-0.9,4.4-3.6,6.3-6c0.9-2.1-0.9-4.3-0.7-6.7
		c4.3-0.8,3.9-31.3,6.3-40.7c0.5-3.6,2.6-16.3,3.6-28.5c0.3-2.4,0.2-3.9,0.6-6.3c2-8.3,4.3-19.7,5.6-29.9h0.4
		c1.1,8.1,1.2,17.3,3.1,24.2c2.5,10.7,2.6,13.1,0.6,19.9c-1.7,9.3-1.7,21.6-1.4,31c0.3,9.4,0.2,19.6,2.1,28.8
		c0.1,0.5,0.3,0.5,0.6,0.4c0.4-0.1,0.8,2.5,0.8,3.6c0,0.2,0,0.7,0.1,0.9c0.4,2.6,6,3.4,6.9,3.6c2.6,0.4,5.6-2,9.2,1.3
		c0,0,0.4,0.1,0.6,0.1c6,1,13.4,1.3,18.4-2c0.9-0.7,0.6-2.3-1.1-2.7c-4.4-1-7.8-3.8-11.6-5.9c-1.4-0.8-3.1-2.7-2.7-3.5
		c0.1-0.4,0.7-0.5,0.2-2.1c-4.4-15-3.6-34.9-1.7-50.5c0.1-1.8,1.4-3.9,1.7-5.9c1.8-22.3-2.7-43.6-2.7-65.3c0.6-0.5,1-1.8,0.5-2.9
		c-0.8-3.3-1.4-6.6-2-9.8c-0.5-2.2-0.7-5.8-1.2-7.7C-379.8,257-379.8,253.7-379.7,253L-379.7,253z M-421.2,168.2l-0.3,0.4
		c-0.5-0.6-0.5-1.7,0-2.3C-420.9,166.7-421.1,167.6-421.2,168.2L-421.2,168.2z M-409.5,236.6c-0.5,1.9-3,0.8-4.5,1.1
		c-0.7-0.3-0.3-1-0.4-1.6c2.7-2.9,0.9-7.2,0.4-10.5h4.5C-408.5,228.9-407.6,233.6-409.5,236.6L-409.5,236.6z M-385.7,204.1
		c-0.2,0,0-2.3,0.3-2.4c0.5,0,8.2,0.2,6.8,4.2C-380.6,205.6-383.9,205-385.7,204.1z"/>
</g>
</svg>
