<?xml version="1.0" encoding="utf-8"?>
<!-- Generator: Adobe Illustrator 19.0.0, SVG Export Plug-In . SVG Version: 6.00 Build 0)  -->
<svg version="1.1" id="Layer_1" xmlns="http://www.w3.org/2000/svg" xmlns:xlink="http://www.w3.org/1999/xlink" x="0px" y="0px"
	 viewBox="-448 230.5 62 101.5" style="enable-background:new -448 230.5 62 101.5;" xml:space="preserve">
<style type="text/css">
	.st0{fill:#FFFFFF;}
</style>
<g id="Layer_2">
	<g id="XMLID_100_">
		<path id="XMLID_150_" class="st0" d="M-405.7,264.2c-0.6-0.2-1.2,0.2-1.3,0.7c-0.1,0.4-0.4,0.8-0.7,1.1c-0.3,0.3-0.8,0.4-1.2,0.4
			c-0.5,0-0.9-0.2-1.2-0.4c-0.3-0.3-0.6-0.6-0.7-1.1c-0.2-0.6-0.8-0.9-1.3-0.8c-0.6,0.2-0.9,0.8-0.8,1.3c0.2,0.9,0.8,1.7,1.5,2.2
			c0.7,0.5,1.6,0.9,2.6,0.9s1.8-0.3,2.6-0.9c0.7-0.5,1.2-1.3,1.5-2.2C-404.8,265-405.1,264.4-405.7,264.2z"/>
		<path id="XMLID_149_" class="st0" d="M-420.9,265.6c0.2-0.6-0.2-1.2-0.7-1.3c-0.6-0.2-1.2,0.2-1.3,0.7c-0.1,0.4-0.4,0.8-0.7,1.1
			c-0.3,0.3-0.8,0.4-1.2,0.4c-0.5,0-0.9-0.2-1.2-0.4c-0.3-0.3-0.6-0.6-0.7-1.1c-0.2-0.6-0.8-0.9-1.3-0.8c-0.6,0.2-0.9,0.8-0.8,1.3
			c0.2,0.9,0.8,1.7,1.5,2.2c0.7,0.5,1.6,0.9,2.6,0.9s1.9-0.3,2.6-0.9C-421.7,267.2-421.2,266.5-420.9,265.6z"/>
		<path id="XMLID_145_" class="st0" d="M-411.3,274.2c-1.3,1.8-3.4,2.9-5.7,2.9s-4.4-1.1-5.7-2.9c-0.4-0.5-1-0.6-1.5-0.2
			s-0.6,1-0.2,1.5c1.7,2.4,4.5,3.8,7.5,3.8s5.8-1.5,7.5-3.8c0.4-0.5,0.2-1.2-0.2-1.5C-410.2,273.6-410.9,273.7-411.3,274.2z"/>
		<path id="XMLID_102_" class="st0" d="M-386.1,264.9c-1.1-22.8-27.3-34.4-30.9-34.4s-29.8,11.6-30.9,34.4
			c-1,20.5,3.3,67.1,30.9,67.1S-385.1,285.4-386.1,264.9z M-419.7,247c0.8-0.1,1.6-0.2,2.5-0.2c1.1,0,2.3,0.1,3.4,0.3
			c0.1,0.1,0.2,0.3,0.3,0.5c0.5,0.7,1,1.9,1,3.8c0,1.4-0.3,3.2-1.1,5.5c-2.6-2.1-4.1-4.1-5-5.7c-0.9-1.7-1.1-3.1-1.1-3.9
			C-419.7,247.2-419.7,247.1-419.7,247z M-421.5,247.4c0,1.1,0.3,2.7,1.3,4.7c0.5,0.9,1.1,1.8,1.9,2.9c-0.8-0.3-1.7-0.7-2.5-1
			c-1.4-0.6-2.5-1.2-3.4-2.1c-0.4-0.4-0.7-0.9-1-1.5c-0.2-0.5-0.3-1-0.3-1.7C-424.2,248.1-422.9,247.7-421.5,247.4z M-400.4,306.7
			c-0.4,0.4-1.1,0.5-1.5,0.1l-20.7-18.5c1.3,0.3,2.6,0.5,3.9,0.6l4.8,4.3l5.4-6c1-0.4,2-0.9,3-1.5c0.4,0.4,0.4,1,0,1.5l-6.8,7.6
			l11.7,10.4C-400,305.5-400,306.2-400.4,306.7z M-393,270.9c-0.7,0.7-1.6,1.1-2.6,1.1c-0.4,0-0.8-0.1-1.2-0.2l-1.5-0.5l-0.5,1.5
			c-1.3,3.8-3.8,7.1-7,9.4c-3.2,2.3-7.1,3.7-11.4,3.7c-4.2,0-8.2-1.4-11.4-3.7c-3.2-2.3-5.7-5.6-7-9.3l-0.4-1.4l-1.4,0.4
			c-0.3,0.1-0.6,0.1-1,0.1c-1,0-1.9-0.4-2.6-1.1c-0.6-0.6-1-1.5-1-2.5s0.4-1.9,1.1-2.6c0.7-0.7,1.6-1.1,2.6-1.1c0.1,0,0.2,0,0.3,0
			l1.4,0.1l0.2-1.4c0.7-4.7,3.1-8.8,6.5-11.8c0.9-0.7,1.8-1.4,2.7-2c0.1,0.5,0.2,1,0.4,1.5c0.3,0.7,0.7,1.3,1.2,1.9
			c0.8,0.9,1.9,1.6,3,2.1c1.6,0.8,3.4,1.4,4.9,2.1c0.7,0.3,1.4,0.7,2,1.2c0.6,0.4,1,0.9,1.3,1.5c0.2,0.3,0.5,0.5,0.9,0.5
			s0.7-0.2,0.8-0.5c1.6-3.5,2.2-6.3,2.2-8.4c0-1.5-0.3-2.7-0.7-3.6c2.6,0.8,4.9,2.1,6.9,3.9c3.4,3,5.8,7.1,6.5,11.8l0.2,1.5l1.5-0.2
			c0.2,0,0.4,0,0.6,0c1,0,1.9,0.4,2.6,1.1c0.7,0.7,1.1,1.6,1.1,2.6C-391.9,269.4-392.3,270.3-393,270.9z"/>
	</g>
</g>
</svg>
