<?xml version="1.0" encoding="utf-8"?>
<!-- Generator: Adobe Illustrator 19.0.0, SVG Export Plug-In . SVG Version: 6.00 Build 0)  -->
<svg version="1.1" id="Layer_1" xmlns="http://www.w3.org/2000/svg" xmlns:xlink="http://www.w3.org/1999/xlink" x="0px" y="0px"
	 viewBox="-442 189.8 74 183.2" style="enable-background:new -442 189.8 74 183.2;" xml:space="preserve">
<style type="text/css">
	.st0{fill:#FFFFFF;}
</style>
<g id="Layer_2">
	<g id="XMLID_71_">
		<g id="XMLID_86_">
			<g id="XMLID_87_">
				<circle id="XMLID_70_" class="st0" cx="-405" cy="204.9" r="15.1"/>
			</g>
		</g>
		<g id="XMLID_81_">
			<g id="XMLID_82_">
				<path id="XMLID_83_" class="st0" d="M-368.2,241.9c-0.1-9.4-7.8-17.1-17.2-17.1h-6.4c-1.6,4-11.2,29.7-13.2,35
					c-2-5.3-11.6-31-13.1-35h-6.4c-9.5,0-17.2,7.7-17.2,17.1l-0.3,53.5c0,4,3.2,7.3,7.2,7.3l0,0c4,0,7.3-3.2,7.3-7.2l0.3-53.5
					c0-0.8,0.7-1.5,1.5-1.5c0.8,0,1.5,0.7,1.5,1.5c0,72.4-0.1,6.8-0.1,122.3c0,4.8,3.9,8.7,8.7,8.7c4.8,0,8.7-3.9,8.7-8.7v-69.8h3.8
					v69.8c0,4.8,3.9,8.7,8.7,8.7c4.8,0,8.7-3.9,8.7-8.7c0-113.7-0.1-52.1-0.1-122.3c0-0.8,0.7-1.5,1.5-1.5c0.8,0,1.5,0.6,1.5,1.5
					l0.3,53.5c0,4,3.3,7.2,7.3,7.2l0,0c4,0,7.3-3.3,7.2-7.3L-368.2,241.9z M-389.9,249h-6.8v-3.2h6.8V249z"/>
			</g>
		</g>
		<g id="XMLID_78_">
			<g id="XMLID_79_">
				<path id="XMLID_66_" class="st0" d="M-398.2,221.3c-0.3-0.2-0.7-0.2-1,0l-5.8,3.1l-5.7-3.1c-0.3-0.2-0.7-0.2-1,0
					c-0.3,0.2-0.5,0.5-0.5,0.9v2.5v4.7c0,0.4,0.2,0.7,0.5,0.9c0.3,0.2,0.7,0.2,1,0l5.7-3.1l5.7,3.1c0.3,0.2,0.7,0.2,1,0
					c0.3-0.2,0.5-0.5,0.5-0.9v-4.7v-2.5C-397.7,221.8-397.9,221.5-398.2,221.3z"/>
			</g>
		</g>
		<g id="XMLID_75_">
			<g id="XMLID_76_">
				<circle id="XMLID_64_" class="st0" cx="-405" cy="234.9" r="2"/>
			</g>
		</g>
		<g id="XMLID_72_">
			<g id="XMLID_73_">
				<circle id="XMLID_34_" class="st0" cx="-405" cy="244.4" r="2"/>
			</g>
		</g>
	</g>
</g>
</svg>
