<?xml version="1.0" encoding="utf-8"?>
<!-- Generator: Adobe Illustrator 19.0.0, SVG Export Plug-In . SVG Version: 6.00 Build 0)  -->
<svg version="1.1" id="Layer_1" xmlns="http://www.w3.org/2000/svg" xmlns:xlink="http://www.w3.org/1999/xlink" x="0px" y="0px"
	 viewBox="-79 -120 800 800" style="enable-background:new -79 -120 800 800;" xml:space="preserve">
<style type="text/css">
	.st0{fill:#FFFFFF;}
</style>
<title>facebook</title>
<path class="st0" d="M-33.3-120h708.7c24,0,45.7,21.6,45.7,45.7v708.7c0,24-21.6,45.7-45.7,45.7H-33.3c-24,0-45.7-21.6-45.7-45.7
	V-74.3C-79-98.4-57.4-120-33.3-120z M489.2,329.2h110.5l4.8-105.7H489.2v-78.1c0-30,6-46.9,44.4-46.9h67.3l2.4-98.5
	c0,0-30-4.8-73.3-4.8c-105.7,0-152.6,66.1-152.6,137v91.3h-78.1v105.7h78.1v293.1h111.7V329.2z"/>
</svg>
