<?xml version="1.0" encoding="utf-8"?>
<!-- Generator: Adobe Illustrator 19.0.0, SVG Export Plug-In . SVG Version: 6.00 Build 0)  -->
<svg version="1.1" id="Layer_1" xmlns="http://www.w3.org/2000/svg" xmlns:xlink="http://www.w3.org/1999/xlink" x="0px" y="0px"
	 viewBox="-378 237.6 201.4 73" style="enable-background:new -378 237.6 201.4 73;" xml:space="preserve">
<style type="text/css">
	.st0{fill:#273D4C;}
	.st1{fill:#1E1E1E;}
	.st2{fill:#4C0707;}
</style>
<g id="Layer_2">
	<rect id="XMLID_336_" x="-378" y="237.6" class="st0" width="201.4" height="86.4"/>
	<g id="XMLID_2_">
		<path id="XMLID_47_" d="M-189.1,237.6c4.2,0,8.3,0,12.5,0c0,22.2,0,44.5,0,66.7c-4.6,2-9.3,4-13.8,6c-15.3,6.9-31.3,11-47.9,13
			c-1.9,0.2-3.8,0.4-5.7,0.6c-3.5,0-7,0-10.6,0c-1.3-0.2-2.5-0.3-3.8-0.5c-9.8-1.1-18.7-4.5-25.7-11.6c-7.4-7.4-11-16.3-9.8-26.9
			c0.3-2.2,1.1-4.4,1.6-6.6c0.1,0,0.3,0,0.4,0.1c-0.2,3.3,0.6,6.2,2.4,9c0.1,0.1,0.1,0.3,0.2,0.4c0.9,2.1,1.4,4.3,2.6,6.1
			c7.6,10.8,18.2,15.7,31.4,14.2c9.7-1.1,18.1-5.2,25.7-11.2c9.6-7.7,17.2-17.1,24-27.3C-199.1,259.6-193.8,248.8-189.1,237.6z"/>
		<path id="XMLID_46_" d="M-367.4,324c-3.5,0-7,0-10.6,0c0-23.3,0-46.6,0-69.8c0.4-0.1,0.8-0.2,1.1-0.4c2.7-1.2,5.5-2.4,8.2-3.6
			c10.3-4.6,20.7-8.7,31.7-11.1c2.2-0.5,4.3-1,6.5-1.5c14.6,0,29.3,0,43.9,0c0.2,0.1,0.3,0.2,0.5,0.3c5.2,1.7,9.8,4.6,13.8,8.3
			c7.8,7.2,11.6,16.1,10.9,26.8c-0.2,2.6-0.9,5.1-2,7.6c-0.1-0.3-0.1-0.4-0.1-0.5c0.1-3-0.7-5.8-2.3-8.3c-0.1-0.2-0.2-0.4-0.3-0.6
			c-0.8-2-1.4-4.3-2.6-6c-7.6-11-18.1-15.8-31.3-14.5c-9.6,1-18,5-25.5,11c-9.1,7.3-16.5,16.1-23.1,25.7
			C-356.3,298.9-362.3,311.2-367.4,324z"/>
		<path id="XMLID_45_" d="M-324,324c-13,0-26.1,0-39.1,0c0.6-1.6,1.3-3.2,1.9-4.8c6.6-17.4,16.1-33,28.2-47.1
			c5.7-6.6,12.1-12.4,20-16.1c9.6-4.5,19.4-5.6,29.5-1.6c6.8,2.7,12.4,6.9,15.7,13.7c0.3,0.7,0.6,1.4,0.9,2c-2.4-2.3-5-3.9-8.2-4.5
			c-0.2,0-0.4-0.2-0.5-0.3c-1.5-0.7-3-1.6-4.6-2c-9.7-2.6-18.6-0.5-26.7,5c-6.9,4.7-11.1,11.6-14,19.2c-3.4,8.8-4.1,18.1-3.7,27.5
			C-324.5,317.9-324.2,321-324,324z"/>
		<path id="XMLID_44_" d="M-231.4,237.6c12.6,0,25.3,0,37.9,0c-0.5,1.2-1,2.5-1.4,3.7c-6.7,17-16.1,32.4-28.1,46.2
			c-5.4,6.2-11.5,11.7-19,15.3c-10.6,5.1-21.4,6-32.4,0.8c-6.2-2.9-10.9-7.2-13.7-13.4c-0.2-0.4-0.3-0.7-0.4-1.1
			c2.4,2.2,4.9,3.7,8,4.3c0.2,0,0.4,0.2,0.5,0.2c1.3,0.6,2.5,1.4,3.9,1.8c10.4,3.1,19.9,0.8,28.4-5.4c7.1-5.2,11.2-12.6,13.9-20.8
			C-230.4,258.9-230.4,248.3-231.4,237.6z"/>
		<path id="XMLID_42_" d="M-320.9,324c-0.4-2.8-0.8-5.7-1.1-8.6c-0.7-8.7-0.5-17.4,2.1-25.9c3.1-10.2,9-18.2,18.7-23
			c6-3,12.5-4.6,19.3-3c1.8,0.4,3.5,1,5.3,1.5c0,0.1,0,0.2-0.1,0.3c-0.2,0-0.5,0-0.7,0c-1,0.1-2-0.1-2.9,0.2
			c-5.2,1.8-10.7,3.2-14.9,7c-9.4,8.6-13.3,19.2-11,31.9c1.2,6.7,3.7,12.9,7.5,18.5c0.2,0.3,0.3,0.7,0.5,1
			C-305.7,324-313.3,324-320.9,324z"/>
		<path id="XMLID_41_" d="M-234.2,237.6c0.3,2.7,0.7,5.5,0.8,8.2c0.5,8.6,0.2,17.2-2.8,25.5c-4.9,13.4-14.1,21.9-28.4,24.5
			c-4.8,0.9-9.5,0-14-1.8c-0.1,0-0.2-0.1-0.3-0.2c3.3,0.1,6.3-0.7,9-2.4c0.5-0.3,1.3-0.4,1.9-0.6c6.5-2.3,11-6.8,14.4-12.5
			c5.4-8.8,5.9-18.2,3.1-28c-1.3-4.4-3.1-8.6-5.5-12.6C-248.6,237.6-241.4,237.6-234.2,237.6z"/>
		<path id="XMLID_40_" d="M-295.4,324c-6.5-8.1-10.3-17.3-9.8-27.9c0.5-10.1,4.5-18.7,13-24.8c1.6-1.1,3.4-1.9,5.1-2.7
			c-0.9,1.2-2.1,2.2-2.7,3.5c-1.7,3.8-3.8,7.6-4.5,11.6c-2.2,12.1,1.5,22.4,10.6,30.7c4.7,4.3,10.3,7.1,16.3,9.1
			c0.4,0.1,0.8,0.3,1.2,0.5C-275.9,324-285.7,324-295.4,324z"/>
		<path id="XMLID_39_" d="M-258,237.6c1.6,2.9,3.5,5.7,4.8,8.8c4.9,12.4,4.1,24.3-3.8,35.4c-2.8,4-6.8,6.7-11.4,8.4
			c0.2-0.2,0.4-0.4,0.6-0.6c0.6-0.7,1.4-1.3,1.7-2.1c2.2-4.7,5.1-9.3,5.5-14.7c0.9-12.2-3.2-22.3-13-29.8c-2.7-2.1-5.9-3.7-8.8-5.5
			C-274.3,237.6-266.2,237.6-258,237.6z"/>
		<path id="XMLID_38_" d="M-176.6,308.9c0,5,0,10.1,0,15.1c-15,0-30.1,0-45.1,0c0.2-0.1,0.4-0.2,0.6-0.2
			c12.6-2.5,24.7-6.7,36.6-11.6C-181.9,311.1-179.3,310-176.6,308.9z"/>
		<path id="XMLID_36_" d="M-378,249.8c0-4,0-8.1,0-12.2c11,0,22.1,0,33.1,0c-0.1,0.1-0.3,0.2-0.4,0.2
			C-356.5,240.9-367.3,245.2-378,249.8z"/>
	</g>
	<path id="XMLID_256_" d="M-277.9,272.2c0.2,0.3,0.4,0.6,0.6,1c0.1-0.3,0.1-0.3,0-0.4c-0.1-0.1-0.2-0.2-0.3-0.3s-0.2-0.3-0.2-0.5
		c0-0.1,0-0.2-0.1-0.3c-0.1-0.1-0.2-0.3-0.2-0.5c0-0.3,0-0.6,0.1-0.9c0.1-0.4,0.4-0.6,0.8-0.6c0.1,0,0.2,0,0.3,0c0.6,0,1,0.7,1,1.2
		c0,0.2,0,0.5-0.1,0.7c0,0.1,0,0.1-0.1,0.2c-0.2,0.2-0.2,0.4-0.4,0.6v0.1c0,0.1-0.1,0.3-0.1,0.5c0.1,0.1,0.2-0.1,0.3-0.1
		c0-0.1,0-0.2,0-0.4c0.2,0.1,0.3,0.1,0.4,0.2c0.1,0,0.2,0.1,0.3,0.1c0.3,0,0.6,0.2,0.6,0.6c0,0.2,0.1,0.4,0.3,0.5
		c0.1,0.1,0.2,0.2,0.3,0.4c0.1,0.2,0.2,0.2,0.4,0.2c0.6,0,1.3-0.1,1.9-0.2c0.1,0,0.2,0,0.3,0c0,0.2,0,0.4,0.1,0.6
		c0,0.1,0,0.3,0.2,0.4c0,0,0,0.1,0.1,0.2c-0.6,0.2-2.9,0.4-3.4,0.2c0,0.1,0,0.2,0,0.3c0,0.4,0.1,0.7,0.1,1.1c0,0.2,0,0.4,0,0.6
		c-0.1,0.3-0.1,0.7,0,1c0.1,0.5,0.1,1,0,1.5c0,0.2,0,0.3,0.1,0.4c0.5,0.7,1,1.5,1.3,2.3c0.1,0.3,0.1,0.5,0,0.8
		c-0.2,0.8-0.4,1.6-0.6,2.4c0,0.2-0.1,0.4-0.1,0.6c-0.1,0.4-0.1,0.7-0.1,1.1c0,0.2,0.1,0.3,0.2,0.4c0.1,0.1,0.2,0.2,0.4,0.4
		c0.1,0.1,0.1,0.2,0,0.3c0,0.1-0.1,0.1-0.2,0.1c-0.3,0-0.5,0-0.8-0.1c-0.1-0.1-0.3-0.1-0.3-0.3c0-0.1-0.1-0.1-0.2-0.1l0,0
		c-0.6,0-0.7-0.1-0.6-0.7c0.1-0.5,0.2-1,0.3-1.4c0.1-0.4,0.1-0.8,0.2-1.2c0.1-0.3,0.1-0.7,0.2-1c0-0.2,0-0.3-0.1-0.4
		c-0.7-0.9-1.4-1.7-2.1-2.6c0-0.1-0.1-0.1-0.2-0.2c-0.1,0.1-0.1,0.1-0.1,0.1c-0.4,0.4-0.7,0.9-1,1.4c-0.3,0.6-0.7,1.1-1,1.7
		c-0.1,0.2-0.3,0.3-0.4,0.5c-0.8,0.7-1.4,1.6-2.1,2.4c-0.3,0.4-0.7,0.8-1,1.2c-0.1,0.1-0.2,0.2-0.3,0.2c0.1,0.4-0.1,0.6-0.5,0.6
		h-0.1c-0.5-0.1-0.8-0.5-0.7-1c0-0.1,0.1-0.2,0.1-0.4c0-0.1,0.1-0.2,0.1-0.2c0.5-0.5,0.8-1.1,1.2-1.7c0.4-0.6,0.8-1.1,1.4-1.5l0,0
		c0.4-0.3,0.7-0.6,0.8-1.1c0.2-0.7,0.5-1.3,0.8-2c-0.1-0.1-0.3-0.2-0.4-0.3c0.1-0.4,0.3-0.8,0.5-1.2c0.3-0.6,0.6-1.1,0.9-1.7
		c0.1-0.1,0.1-0.3,0.2-0.4c0.1-0.2,0.1-0.4,0.1-0.7c-0.1-0.6-0.2-1.2-0.4-1.8c-0.5-0.1-0.8-0.7-0.6-1.1c0.1-0.2,0.2-0.5,0.3-0.7
		c0.1-0.2,0.2-0.3,0.4-0.5c0-0.1-0.1-0.3-0.1-0.5c0-0.2,0-0.5,0.2-0.6c0.1,0,0.1-0.1,0.2-0.1c0-0.2-0.1-0.3-0.1-0.5
		c0-0.1,0.1-0.2,0.1-0.2c0.1,0,0.2,0,0.2,0.1l0.1,0.1c0.1,0.1,0.1,0.3,0.3,0.3l0.1,0.1c0.1,0.3,0.3,0.6,0.2,1v0.1
		C-278,272.3-277.9,272.3-277.9,272.2z M-277.2,273.3c0,0.1,0.1,0.2,0.1,0.3c0.3,0.6,0.5,1.2,0.5,1.8c0,0.3,0,0.6,0,0.9
		c0,0.4,0.1,0.8,0.1,1.2c0,0.1,0,0.2,0,0.4c0.3,0.1,0.5,0.1,0.8,0.1v-0.1c0.1-0.9,0.1-1.8,0.1-2.7c0-0.7-0.2-1.3-0.5-1.9
		c-0.1,0.2-0.2,0.1-0.3,0.1c-0.1-0.1-0.2-0.1-0.4-0.1C-276.9,273.2-277,273.3-277.2,273.3z M-278.9,273.5c-0.1-0.2-0.1-0.5-0.3-0.8
		c-0.1,0.4-0.1,0.7,0,1c0.1,0,0.3,0,0.3,0c0.2-0.1,0.4-0.3,0.6-0.5c0,0,0,0,0-0.1C-278.6,273.3-278.7,273.4-278.9,273.5z
		 M-278.8,270.9C-278.8,270.9-278.9,270.8-278.8,270.9c-0.1-0.1-0.1,0-0.2,0c0,0,0,0.1,0.1,0.1C-278.9,271-278.8,270.9-278.8,270.9z
		"/>
	<path id="XMLID_252_" d="M-270,273.4c0,0.2,0,0.3-0.2,0.3c-0.1,0-0.2,0-0.3,0.1c0.1,0.2,0.3,0,0.4,0.3c-0.1,0-0.1,0-0.2,0
		c-0.3,0-0.5,0.1-0.7,0.3c-0.1,0.2-0.3,0.3-0.5,0.3c-0.2,0-0.3,0-0.3-0.2s0-0.4,0.2-0.5c0.1,0,0.1-0.1,0.2-0.2
		c0.2-0.3,0.5-0.4,0.9-0.4C-270.3,273.4-270.1,273.4-270,273.4z"/>
	<path id="XMLID_286_" class="st1" d="M-175.2,250.8c-4.9,7.6-21.6,4.9-26.7,4.1c-13.7-2.2-17-7.5-26.3-5.3c-5.5,1.2-6.2,3.5-12,4
		c-7.2,0.6-10.9-2.4-17.3-4c-9-2.3-11.3,1.3-25,2.3c-18.8,1.4-19.2-4.9-38.3-3.3c-9.9,0.8-12.7,2.8-22,2c-8.4-0.7-10.2-2.6-17.3-2
		c-9.2,0.8-13.6,4.5-16.3,2.2c-1.5-1.1-2.6-4-0.1-12.2h201.4C-173.9,242.2-172.8,247.2-175.2,250.8z"/>
	<path id="XMLID_283_" class="st2" d="M-176.6,249.8c-4.9,7.6-21.6,4.9-26.7,4.1c-13.7-2.2-17-7.5-26.3-5.3c-5.5,1.2-6.2,3.5-12,4
		c-7.2,0.6-10.9-2.4-17.3-4c-9-2.3-11.3,1.3-25,2.3c-18.8,1.4-19.3-4.9-38.4-3.3c-9.9,0.8-12.7,2.8-22,2c-8.4-0.7-10.2-2.6-17.3-2
		c-9.3,0.8-13.7,4.5-16.4,2.2c-1.4-1.1-2.5-4,0-12.2h201.4C-175.4,241.2-174.3,246.2-176.6,249.8z"/>
</g>
</svg>
