<?xml version="1.0" encoding="utf-8"?>
<!-- Generator: Adobe Illustrator 19.0.0, SVG Export Plug-In . SVG Version: 6.00 Build 0)  -->
<svg version="1.1" id="Layer_1" xmlns="http://www.w3.org/2000/svg" xmlns:xlink="http://www.w3.org/1999/xlink" x="0px" y="0px"
	 viewBox="-403 171 152.7 220" style="enable-background:new -403 171 152.7 220;" xml:space="preserve">
<style type="text/css">
	.st0{fill:#121C24;}
	.st1{opacity:0.2;fill:none;stroke:#366EA3;stroke-width:5;stroke-miterlimit:10;enable-background:new    ;}
	.st2{fill:#4883B8;}
	.st3{fill:#428BC1;}
	.st4{fill:#FFE62E;}
	.st5{fill:#FFFFFF;}
	.st6{fill:#999999;}
</style>
<g id="Layer_1_1_">
	<rect id="XMLID_12_" x="-403" y="171" class="st0" width="152.5" height="220"/>
	<line id="XMLID_14_" class="st1" x1="-403" y1="340.5" x2="-250.3" y2="340.5"/>
	<line id="XMLID_18_" class="st1" x1="-403" y1="303.5" x2="-250.3" y2="303.5"/>
	<line id="XMLID_22_" class="st1" x1="-403" y1="377.5" x2="-250.3" y2="377.5"/>
	<line id="XMLID_33_" class="st1" x1="-403" y1="266.5" x2="-250.3" y2="266.5"/>
	<line id="XMLID_23_" class="st1" x1="-403" y1="229.5" x2="-250.3" y2="229.5"/>
</g>
<g id="Layer_2">
	<polygon id="XMLID_3_" class="st2" points="-304.5,255.5 -308,248.3 -306.9,243.5 -313.7,226.4 -318.3,224.8 -323.9,219.4 
		-326.4,220.3 -327.6,227.2 -335.6,225.5 -344.3,239.2 -342.9,243.7 -347.3,252.1 -351.8,254.9 -353,267.1 -356.6,273.4 
		-355.2,280.4 -361.9,280.8 -365.9,288.7 -364.6,301 -365.8,307.6 -361.8,312 -364.5,327 -369.9,333.5 -369.2,337.3 -373.7,340.4 
		-373.6,347.3 -369.5,349.7 -369.5,357.4 -363.5,370.9 -363.4,383 -361.4,384.6 -353.9,382.6 -352.6,376.2 -343.8,375.8 -338.6,359 
		-338.4,345 -328.4,338.5 -325.8,331 -332.3,321.1 -335.5,320.9 -337.4,311.7 -335.5,302.6 -335.3,298.9 -326.3,286.3 -318.9,280.7 
		-315.7,273.8 -316.1,265.9 -313.3,256 	"/>
	<g id="XMLID_4_">
		<g id="XMLID_13_">
			<path id="XMLID_9_" class="st3" d="M-356.8,234.7c-1.7-7-8-12.3-15.6-12.3h-0.5v12.3H-356.8"/>
			<path id="XMLID_8_" class="st3" d="M-380.3,224.6c-3.7,2.2-6.5,5.8-7.6,10.1h7.6V224.6z"/>
			<path id="XMLID_7_" class="st3" d="M-387.9,242.2c1.1,4.3,3.8,7.9,7.6,10.1v-10.1H-387.9z"/>
			<path id="XMLID_6_" class="st3" d="M-372.9,254.4h0.5c7.6,0,13.9-5.2,15.6-12.3h-16.1V254.4"/>
		</g>
		<path id="XMLID_5_" class="st4" d="M-356.8,234.7h-16.1v-12.2c-2.7,0.1-5.3,0.9-7.5,2.1v10.1h-7.6c-0.3,1.2-0.4,2.5-0.4,3.7
			s0.2,2.6,0.4,3.7h7.6v10.1c2.2,1.3,4.7,2,7.5,2.1v-12.1h16.1c0.3-1.2,0.4-2.5,0.4-3.7S-356.5,235.9-356.8,234.7"/>
	</g>
	<path id="XMLID_19_" class="st5" d="M-338.1,366.8h-1.2c-0.3-3.3-3-5.9-6.2-6.2v-1.2c0-0.4-0.3-0.7-0.7-0.7c-0.4,0-0.7,0.3-0.7,0.7
		v1.2c-3.3,0.3-5.9,3-6.2,6.2h-1.2c-0.4,0-0.7,0.3-0.7,0.7s0.3,0.7,0.7,0.7h1.2c0.3,3.3,3,5.9,6.2,6.2v1.2c0,0.4,0.3,0.7,0.7,0.7
		c0.4,0,0.7-0.3,0.7-0.7v-1.2c3.3-0.3,5.9-3,6.2-6.2h1.2c0.4,0,0.7-0.3,0.7-0.7C-337.5,367.1-337.8,366.8-338.1,366.8z
		 M-341.9,368.1h1.2c-0.3,2.6-2.4,4.6-4.9,4.9v-1.2c0-0.4-0.3-0.7-0.7-0.7c-0.4,0-0.7,0.3-0.7,0.7v1.2c-2.6-0.3-4.6-2.4-4.9-4.9h1.2
		c0.4,0,0.7-0.3,0.7-0.7c0-0.4-0.3-0.7-0.7-0.7h-1.2c0.3-2.6,2.4-4.6,4.9-4.9v1.2c0,0.4,0.3,0.7,0.7,0.7c0.4,0,0.7-0.3,0.7-0.7v-1.2
		c2.6,0.3,4.6,2.4,4.9,4.9h-1.2c-0.4,0-0.7,0.3-0.7,0.7C-342.5,367.9-342.2,368.1-341.9,368.1z"/>
	<g id="XMLID_21_">
		<polygon id="XMLID_407_" class="st6" points="-282,294.8 -346.3,367.5 -285,292.2 		"/>
	</g>
	<path id="XMLID_126_" class="st5" d="M-275.6,300.9c0-0.6,0.2-1.2,0.3-1.8c0.1-0.6,0.3-1.1,0.4-1.7c0.1-0.3,0.3-0.6,0.6-0.8
		c0.4-0.3,1-0.3,1.5-0.5c0.4-0.2,0.7-0.5,0.9-0.9c0.4-0.8,0.2-1.8,0-2.6c-0.1-0.5-0.2-1-0.2-1.4c0-0.6-0.4-1.3-0.5-1.9
		c-0.1-0.7-0.3-1.4-0.3-2c-0.2-1.3-0.3-2.7-0.4-4.1c0-0.5,0-1-0.2-1.5c-0.5-0.9-1.8-1.3-2.8-1.6c-0.6-0.2-1.1-0.4-1.7-0.7
		c-0.4-0.2-1.3-0.6-1.4-1.1c-0.3-0.8-0.1-1.8-1.2-1.3c0,0,0-0.4,0-0.5c0.1-0.2,0.2-0.4,0.3-0.5c0.2-0.3,0.5-0.6,0.7-1
		c0.2-0.3,0.1-0.7,0.2-1l0.2-0.8c1.1-0.9,1-2.4,0.8-2.5c0-0.1-0.2-0.1-0.2-0.2c-0.1-0.1-0.1-0.4,0-0.6c0.3-0.5,0.2-1.5,0.1-1.9
		c-0.1-0.3-0.2-0.5-0.3-0.8c-0.3-0.7-0.5-1.4-1.4-1.6c-1.1-0.3-3.9-0.2-5.1,1.3c-1.1,1.1-0.6,4.1-0.8,4.1c0,0-0.2,0.1-0.2,0.3
		c-0.1,0.5-0.1,1.8,0.7,2.4c0.1,0.1,0,0.7,0,0.9c0,0.5,0.4,1.2,0.4,1.5c0,0.4-0.1,0.6,0.2,0.8c0.2,0.1,1.5,0.6,1.4,1.2
		c-0.1,0.3,0.1,0.8,0.2,1.1c0.1,0.3,0.2,0.7,0.4,1c0.4,0.4,1.3-0.7,1.5-0.9c0.9-0.5,1.3,0.9,2,1.2c0.8,3.3,0.4,9.5,0.2,10.9
		c-0.3,1.3-0.4,0.4-0.4,0.4c-0.1-2.9-5.1-13.9-6-14.1c-0.7-0.4-1.1,0.7-1.8,0.7c-0.2-0.3-0.1-0.7,0.2-0.9c0.5-0.3,0.3-0.5,0.1-0.7
		c-0.2-0.2-0.3-0.5-0.2-0.8c0.1-0.3,0-0.8-0.3-1.1c-0.2-0.2-1-0.4-0.8-0.7c0.1-0.1,0.5-0.1,0.6-0.2c0.4-0.2,0.2-0.5-0.2-0.6
		c-0.3,0-0.5-0.3-0.5-0.6c0-0.3,0-0.6,0.1-0.9c0-0.1,0-0.3,0-0.4c-0.1-0.1-0.2-0.2-0.3-0.3c0,0,0-0.1,0-0.4c0-0.1,0.1,0,0.1-0.1
		l0.3-5.3c0-0.1-0.8-0.2-0.9-0.1l-0.3,5.3c0,0.1,0.2,0,0.2,0.1c0,0.1,0,0.4,0,0.5c-0.8,0.5-0.2,2.1-1.3,2.4
		c-0.7,0.2-0.1,1.2-0.4,1.7c-0.2,0.3-0.5,0.4-0.6,0.7c-0.1,0.3-0.1,0.7-0.1,1c0,0.7,0.4,1,0.4,2c0,0.8,0.7,1.3,1.4,1.5
		c0.9,0.4,1.6-0.4,2.2,0c0,0.6-0.1,1.2-0.3,1.6c-0.6,1-2,1.3-2.9,0.4c-1.3-0.5-0.6-1.2-0.7-1.8c0,0-1.4,0.5-1.6,0.6
		c-0.4,0.3-0.3,0.6-0.3,1.1c0,3.1-0.4,6.2-0.8,9.3c-0.1,0.5-0.1,1-0.2,1.6c0,0.4-0.2,0.9,0,1.3c0.5,1.3,1.7,2.3,2.8,3
		c0.7,0.4,1.4-0.4,2.1-0.1c0.6,0.3,0.5,1.4,0.6,2c0.1,0.9,0,1.9-0.2,2.8c-0.3,1.8-0.9,3.6-1.2,5.4c-0.1,0.5-0.1,1.1-0.2,1.6
		c0,0.2-0.1,1.6,0.1,1.7c0.1,0.3,0.5,0.3,0.5,1c-0.3,4.1-0.5,8.1-0.7,12.2c-0.2,4.1-0.3,8.1-0.7,12.2c-0.2,2.1-0.6,4.2-0.7,6.3
		c-0.1,1.8-0.7,3.7-0.3,5.4c0.2,0.8-0.1,1.8,0.4,2.4c0,0.7-0.5,1.1-0.6,1.3c-0.3,1.1,0.5,2.1,1.1,2.5c1.1,0.9,1.7,0.7,2.4,0.5
		c1-0.3,1.4-1.2,2-1.9c0.3-0.7-0.3-1.4-0.2-2.2c1.4-0.3,1.3-10,2-13c0.2-1.1,0.8-5.2,1.1-9.1c0.1-0.8,0.1-1.2,0.2-2
		c0.6-2.6,1.4-6.3,1.8-9.6h0.1c0.3,2.6,0.4,5.5,1,7.8c0.8,3.4,0.8,4.2,0.2,6.4c-0.5,3-0.5,6.9-0.4,9.9c0.1,3,0.1,6.3,0.7,9.2
		c0,0.1,0.1,0.1,0.2,0.1c0.1,0,0.2,0.8,0.3,1.1c0,0.1,0,0.2,0,0.3c0.1,0.8,1.9,1.1,2.2,1.1c0.8,0.1,1.8-0.6,2.9,0.4c0,0,0.1,0,0.2,0
		c1.9,0.3,4.3,0.4,5.9-0.6c0.3-0.2,0.2-0.7-0.4-0.9c-1.4-0.3-2.5-1.2-3.7-1.9c-0.4-0.2-1-0.9-0.9-1.1c0-0.1,0.2-0.2,0-0.7
		c-1.4-4.8-1.1-11.1-0.5-16.2c0-0.6,0.5-1.2,0.5-1.9c0.6-7.1-0.9-13.9-0.9-20.9c0.2-0.2,0.3-0.6,0.2-0.9c-0.3-1-0.4-2.1-0.6-3.1
		c-0.1-0.7-0.2-1.8-0.4-2.5C-275.7,302.2-275.7,301.2-275.6,300.9L-275.6,300.9z M-288.9,273.8l-0.1,0.2c-0.2-0.2-0.2-0.5,0-0.7
		C-288.8,273.4-288.9,273.6-288.9,273.8L-288.9,273.8z M-285.2,295.7c-0.2,0.6-1,0.3-1.4,0.4c-0.2-0.1-0.1-0.3-0.1-0.5
		c0.9-0.9,0.3-2.3,0.1-3.4h1.4C-284.8,293.3-284.6,294.8-285.2,295.7L-285.2,295.7z M-277.5,285.3c-0.1,0,0-0.7,0.1-0.8
		c0.2,0,2.6,0.1,2.2,1.4C-275.9,285.8-277,285.6-277.5,285.3z"/>
</g>
</svg>
