<?xml version="1.0" encoding="utf-8"?>
<!-- Generator: Adobe Illustrator 19.0.0, SVG Export Plug-In . SVG Version: 6.00 Build 0)  -->
<svg version="1.1" id="Layer_1" xmlns="http://www.w3.org/2000/svg" xmlns:xlink="http://www.w3.org/1999/xlink" x="0px" y="0px"
	 viewBox="-472 273 15 15" style="enable-background:new -472 273 15 15;" xml:space="preserve">
<style type="text/css">
	.st0{fill:#1C1C1C;}
</style>
<g id="Layer_2">
	<path id="XMLID_326_" class="st0" d="M-465.2,273.7c0-0.4,0.3-0.7,0.7-0.7s0.7,0.3,0.7,0.7v1.4c2.5,0.3,4.4,2.3,4.7,4.7h1.4
		c0.4,0,0.7,0.3,0.7,0.7s-0.3,0.7-0.7,0.7h-1.4c-0.3,2.5-2.3,4.4-4.7,4.7v1.4c0,0.4-0.3,0.7-0.7,0.7s-0.7-0.3-0.7-0.7v-1.4
		c-2.5-0.3-4.4-2.3-4.7-4.7h-1.4c-0.4,0-0.7-0.3-0.7-0.7s0.3-0.7,0.7-0.7h1.4c0.3-2.5,2.3-4.4,4.7-4.7
		C-465.2,275.1-465.2,273.7-465.2,273.7z M-460.4,280.5c0-2.3-1.8-4.1-4.1-4.1s-4.1,1.9-4.1,4.1s1.8,4.1,4.1,4.1
		S-460.4,282.8-460.4,280.5z M-462.4,280.5c0,1.1-0.9,2-2,2s-2-0.9-2-2s0.9-2,2-2S-462.4,279.4-462.4,280.5z"/>
</g>
</svg>
