<?xml version="1.0" encoding="utf-8"?>
<!-- Generator: Adobe Illustrator 19.0.0, SVG Export Plug-In . SVG Version: 6.00 Build 0)  -->
<svg version="1.1" id="Layer_1" xmlns="http://www.w3.org/2000/svg" xmlns:xlink="http://www.w3.org/1999/xlink" x="0px" y="0px"
	 viewBox="0 0 960 83.4" style="enable-background:new 0 0 960 83.4;" xml:space="preserve">
<style type="text/css">
	.st0{fill:#121C24;}
	.st1{opacity:0.4;fill:none;stroke:#366EA3;stroke-width:20;stroke-miterlimit:10;enable-background:new    ;}
	.st2{fill:#8EA1AD;}
</style>
<rect id="XMLID_2_" x="-8.8" y="47.4" class="st0" width="980.2" height="139"/>
<rect id="XMLID_17_" x="-8.8" y="-91.6" class="st0" width="980.2" height="139"/>
<line id="XMLID_1_" class="st1" x1="983" y1="158.7" x2="-23" y2="158.7"/>
<line id="XMLID_730_" class="st1" x1="57" y1="157" x2="57" y2="76.9"/>
<circle id="XMLID_717_" class="st2" cx="57" cy="158.7" r="24.3"/>
<circle id="XMLID_716_" class="st0" cx="57" cy="158.7" r="15.8"/>
<line id="XMLID_23_" class="st1" x1="269" y1="157" x2="269" y2="76.9"/>
<circle id="XMLID_22_" class="st2" cx="269" cy="158.7" r="24.3"/>
<circle id="XMLID_21_" class="st0" cx="269" cy="158.7" r="15.8"/>
<line id="XMLID_32_" class="st1" x1="605.4" y1="157" x2="605.4" y2="76.9"/>
<circle id="XMLID_31_" class="st2" cx="605.4" cy="158.7" r="24.3"/>
<circle id="XMLID_30_" class="st0" cx="605.4" cy="158.7" r="15.8"/>
<line id="XMLID_29_" class="st1" x1="797.4" y1="157" x2="797.4" y2="76.9"/>
<circle id="XMLID_28_" class="st2" cx="797.4" cy="158.7" r="24.3"/>
<circle id="XMLID_25_" class="st0" cx="797.4" cy="158.7" r="15.8"/>
<image style="overflow:visible;" width="508" height="762" id="XMLID_18_" xlink:href="6E90549.jpg"  transform="matrix(9.056604e-002 0 0 9.056604e-002 33.9962 7.8785)">
</image>
<image style="overflow:visible;" width="500" height="750" id="XMLID_16_" xlink:href="BA1A696A.jpeg"  transform="matrix(9.325912e-002 0 0 9.325912e-002 245.6792 7.412)">
</image>
<image style="overflow:visible;" width="500" height="776" id="XMLID_24_" xlink:href="62FBCB2D.jpeg"  transform="matrix(9.851804e-002 0 0 9.851804e-002 580.7583 0.4399)">
</image>
<image style="overflow:visible;" width="637" height="1000" id="XMLID_33_" xlink:href="9853024D.jpeg"  transform="matrix(7.732970e-002 0 0 7.732970e-002 772.7403 0)">
</image>
</svg>
