<?xml version="1.0" encoding="utf-8"?>
<!-- Generator: Adobe Illustrator 19.0.0, SVG Export Plug-In . SVG Version: 6.00 Build 0)  -->
<svg version="1.1" id="Layer_1" xmlns="http://www.w3.org/2000/svg" xmlns:xlink="http://www.w3.org/1999/xlink" x="0px" y="0px"
	 viewBox="-79 -120 800 800" style="enable-background:new -79 -120 800 800;" xml:space="preserve">
<style type="text/css">
	.st0{fill:#FFFFFF;}
</style>
<title>youtube [#168]</title>
<desc>Created with Sketch.</desc>
<g id="Page-1">
	<g id="Dribbble-Light-Preview" transform="translate(-300.000000, -7442.000000)">
		<g id="icons" transform="translate(56.000000, 160.000000)">
			<path id="youtube-_x5B__x23_168_x5D_" class="st0" d="M484.5,7662.4V7438c79.7,37.5,141.4,73.7,214.4,112.8
				C638.7,7584.1,564.2,7621.6,484.5,7662.4 M928.6,7326.3c-13.7-18.1-37.2-32.2-62.1-36.9c-73.3-13.9-530.7-13.9-604,0
				c-20,3.8-37.8,12.8-53.1,26.9c-64.5,59.8-44.3,380.7-28.7,432.7c6.5,22.5,15,38.7,25.6,49.4c13.7,14.1,32.5,23.8,54,28.1
				c60.4,12.5,371.3,19.5,604.9,1.9c21.5-3.8,40.6-13.8,55.6-28.4C980.4,7740.4,976.4,7401.5,928.6,7326.3"/>
		</g>
	</g>
</g>
</svg>
